<svg id="svg" version="1.1" xmlns="http://www.w3.org/2000/svg" xmlns:xlink="http://www.w3.org/1999/xlink" width="400" height="229.71619365609348" viewBox="0, 0, 400,229.71619365609348"><g id="svgg"><path id="path0" d="M135.312 22.054 C 117.182 23.555,103.072 38.911,103.014 57.206 C 102.923 85.597,134.496 102.534,158.096 86.755 L 160.218 85.336 160.307 87.354 C 160.437 90.286,159.923 89.764,173.178 100.454 C 179.727 105.736,188.685 112.966,193.084 116.521 C 197.483 120.075,203.700 125.086,206.900 127.657 C 210.100 130.228,213.558 133.033,214.585 133.890 C 219.186 137.730,227.443 144.265,228.080 144.571 C 229.044 145.034,230.677 144.995,231.673 144.485 C 232.778 143.919,237.877 138.688,238.291 137.696 C 238.840 136.382,238.740 134.807,238.119 134.974 C 237.844 135.048,237.458 135.109,237.263 135.111 C 237.067 135.113,236.667 135.325,236.372 135.583 C 235.300 136.522,232.224 135.731,229.675 133.859 C 229.066 133.413,228.672 132.983,228.799 132.905 C 228.931 132.823,228.709 132.506,228.283 132.166 C 226.437 130.693,224.646 127.026,224.405 124.225 L 224.263 122.574 221.236 120.107 C 219.571 118.751,214.763 114.874,210.551 111.493 C 206.340 108.111,196.131 99.898,187.866 93.240 C 179.600 86.582,172.439 80.825,171.950 80.447 C 170.747 79.513,169.844 79.243,167.923 79.243 L 166.296 79.243 167.729 77.129 C 182.924 54.718,167.970 24.009,140.902 22.037 C 139.249 21.917,137.796 21.831,137.674 21.847 C 137.551 21.863,136.489 21.956,135.312 22.054 M143.527 36.047 C 161.769 40.552,166.230 64.353,150.883 75.302 C 138.660 84.022,121.065 77.521,117.150 62.839 C 112.947 47.073,127.660 32.129,143.527 36.047 M187.201 66.221 L 187.201 67.668 202.449 67.668 L 217.696 67.668 217.696 66.221 L 217.696 64.775 202.449 64.775 L 187.201 64.775 187.201 66.221 " stroke="none" fill="#f76345" fill-rule="evenodd"></path><path id="path1" d="M0.000 0.334 C 0.000 0.630,22.346 0.668,199.777 0.668 L 399.555 0.668 399.555 114.383 L 399.555 228.098 399.079 228.703 C 398.817 229.036,398.391 229.394,398.133 229.498 C 397.782 229.640,397.958 229.692,398.831 229.702 L 400.000 229.716 400.000 114.858 L 400.000 0.000 200.000 0.000 C 22.371 0.000,0.000 0.037,0.000 0.334 M140.456 45.432 C 139.783 45.669,138.797 45.968,138.265 46.096 C 137.581 46.260,136.898 46.699,135.928 47.600 C 135.174 48.299,134.348 49.019,134.092 49.199 C 132.461 50.348,132.487 54.049,134.132 54.834 C 134.558 55.037,135.116 55.559,135.373 55.993 C 136.098 57.223,136.538 56.949,136.672 55.182 C 136.767 53.931,136.889 53.598,137.507 52.894 C 137.905 52.442,138.230 51.871,138.230 51.627 C 138.230 49.609,139.462 48.940,141.530 49.834 C 144.893 51.287,145.131 51.266,145.131 49.507 C 145.131 47.718,143.576 45.186,142.477 45.186 C 142.365 45.186,142.140 45.145,141.977 45.094 C 141.814 45.043,141.130 45.195,140.456 45.432 M135.399 58.375 C 135.012 58.651,134.236 59.394,133.675 60.027 C 132.519 61.332,130.862 62.255,129.302 62.462 C 127.971 62.638,127.509 63.116,126.769 65.082 C 126.053 66.982,126.087 67.079,128.140 68.996 C 134.579 75.009,144.954 74.727,150.997 68.374 C 152.017 67.303,150.920 65.013,148.743 63.670 C 148.164 63.313,147.300 62.552,146.824 61.980 C 146.130 61.148,143.256 58.987,142.843 58.987 C 142.790 58.987,142.687 59.704,142.613 60.580 C 142.450 62.523,142.322 62.664,140.723 62.646 C 138.061 62.617,136.000 61.058,136.169 59.200 C 136.306 57.684,136.332 57.711,135.399 58.375 M219.477 88.545 C 217.664 89.717,217.056 90.846,217.038 93.072 C 217.022 95.094,217.477 95.151,221.050 93.580 C 223.726 92.404,224.536 92.722,225.039 95.147 C 225.229 96.059,225.515 96.647,226.040 97.204 C 226.861 98.075,227.069 98.765,226.902 100.065 C 226.671 101.864,227.522 102.148,228.501 100.598 C 228.802 100.121,229.442 99.530,229.924 99.284 C 231.958 98.246,231.797 93.563,229.688 92.473 C 229.339 92.292,228.462 91.552,227.739 90.827 C 226.649 89.733,226.204 89.450,225.122 89.162 C 224.404 88.971,223.367 88.654,222.816 88.458 C 221.046 87.826,220.569 87.839,219.477 88.545 M220.270 114.057 C 220.417 114.641,219.623 116.498,218.856 117.368 C 218.446 117.833,218.352 117.721,220.840 119.753 L 222.705 121.276 222.827 118.679 C 222.914 116.819,223.060 115.874,223.340 115.347 L 223.730 114.611 222.925 114.762 C 222.240 114.890,221.970 114.806,221.123 114.197 L 220.126 113.481 220.270 114.057 M215.602 135.935 C 215.528 136.524,215.317 138.609,215.134 140.568 C 214.952 142.526,214.705 144.730,214.587 145.465 C 214.468 146.199,214.269 147.761,214.144 148.935 C 214.020 150.108,213.774 151.477,213.598 151.975 C 213.311 152.789,213.319 153.014,213.681 154.181 C 213.902 154.896,214.200 156.583,214.343 157.930 C 215.102 165.062,215.920 169.755,216.706 171.470 C 217.776 173.807,220.538 188.123,221.587 196.772 C 222.295 202.604,222.803 205.170,223.313 205.485 C 224.360 206.133,219.615 212.354,218.074 212.354 C 217.392 212.354,216.951 213.236,217.246 214.011 C 217.719 215.253,219.306 215.590,222.730 215.175 C 224.084 215.011,224.093 215.013,224.359 215.656 C 225.332 218.005,234.316 216.720,237.426 213.787 C 238.297 212.965,238.318 212.748,237.830 209.572 C 237.613 208.153,237.455 205.165,237.397 201.336 C 237.338 197.512,237.038 191.802,236.571 185.643 C 235.891 176.664,235.852 175.612,236.041 171.174 C 236.192 167.615,236.175 165.932,235.971 164.608 C 235.438 161.128,235.295 159.669,235.156 156.234 L 235.014 152.757 232.198 152.606 C 228.060 152.385,228.025 152.374,227.326 151.181 C 226.357 149.528,225.315 146.515,224.899 144.164 L 224.512 141.973 220.492 138.731 C 218.281 136.948,216.307 135.348,216.105 135.176 C 215.774 134.894,215.725 134.967,215.602 135.935 M230.964 206.028 C 230.890 206.222,230.828 206.497,230.826 206.640 C 230.821 206.987,230.392 206.315,230.387 205.954 C 230.386 205.801,230.545 205.676,230.742 205.676 C 230.976 205.676,231.053 205.797,230.964 206.028 M0.000 229.355 C 0.000 229.605,0.189 229.711,0.612 229.699 C 0.961 229.689,1.081 229.628,0.890 229.557 C 0.707 229.489,0.431 229.335,0.278 229.214 C 0.080 229.057,0.000 229.097,0.000 229.355 " stroke="none" fill="#50506d" fill-rule="evenodd"></path><path id="path2" d="M-0.000 114.820 L -0.000 228.973 0.590 229.289 C 1.447 229.748,397.402 229.768,398.259 229.309 C 398.563 229.147,398.979 228.730,399.183 228.384 C 399.529 227.799,399.555 219.858,399.555 114.212 L 399.555 0.668 199.777 0.668 L 0.000 0.668 -0.000 114.820 M145.687 22.561 C 158.269 25.391,167.920 33.995,172.060 46.077 C 172.848 48.377,172.938 48.541,172.946 47.691 L 172.955 46.745 202.449 46.745 L 231.942 46.745 231.942 48.080 L 231.942 49.416 202.535 49.416 L 173.129 49.416 173.254 50.250 C 173.322 50.710,173.505 52.162,173.660 53.478 L 173.942 55.871 202.942 55.871 L 231.942 55.871 231.942 57.206 L 231.942 58.542 202.927 58.542 L 173.912 58.542 173.771 60.533 C 173.387 65.937,170.985 72.639,167.744 77.351 L 166.518 79.132 168.605 79.243 C 170.363 79.337,170.809 79.440,171.434 79.899 C 172.179 80.446,200.113 102.927,206.566 108.174 C 211.855 112.473,217.679 117.164,218.114 117.474 C 218.824 117.979,220.192 115.330,220.040 113.745 C 219.975 113.072,219.855 110.376,219.775 107.755 L 219.628 102.989 218.751 102.112 C 217.143 100.504,216.532 98.006,217.229 95.894 C 217.461 95.191,217.445 94.988,217.123 94.496 C 215.380 91.836,219.341 86.833,222.192 88.094 C 222.727 88.331,223.713 88.651,224.382 88.806 C 225.910 89.159,227.343 89.969,227.992 90.847 C 228.267 91.219,228.975 91.871,229.565 92.295 C 231.997 94.043,232.238 98.536,229.948 99.436 C 229.388 99.656,228.947 100.049,228.633 100.606 C 228.374 101.067,228.011 101.570,227.826 101.723 C 227.420 102.060,227.416 103.070,227.806 105.954 C 228.138 108.404,228.260 108.042,225.916 111.549 C 223.131 115.715,223.038 115.954,223.038 118.957 L 223.038 121.513 223.762 122.062 C 224.281 122.456,224.660 122.578,225.104 122.492 C 225.918 122.334,227.595 123.442,229.955 125.696 L 231.720 127.382 231.710 128.744 C 231.694 130.899,231.133 132.238,230.021 132.777 L 229.101 133.222 229.894 133.837 C 232.036 135.500,235.408 136.341,236.386 135.456 C 237.585 134.370,239.141 134.998,238.761 136.413 C 238.706 136.617,238.594 137.084,238.511 137.451 C 238.328 138.270,232.465 144.288,231.228 144.927 C 229.542 145.798,227.905 145.433,225.860 143.730 L 224.786 142.836 224.933 143.705 C 225.390 146.413,226.545 149.670,227.658 151.391 L 228.180 152.198 230.451 152.346 C 231.699 152.427,233.282 152.551,233.967 152.621 L 235.213 152.749 235.360 156.810 C 235.440 159.044,235.669 161.813,235.867 162.962 C 236.160 164.664,236.205 166.089,236.108 170.618 C 236.004 175.497,236.081 177.457,236.734 186.533 C 237.144 192.226,237.548 198.311,237.633 200.056 C 237.717 201.800,237.880 203.228,237.994 203.228 C 238.296 203.228,237.947 205.268,237.584 205.631 C 237.417 205.798,237.322 206.003,237.374 206.086 C 237.746 206.688,238.381 212.634,238.124 213.111 C 236.419 216.274,225.489 218.514,224.347 215.935 L 224.076 215.323 221.091 215.341 L 218.107 215.359 217.567 214.734 C 216.599 213.613,216.934 212.449,218.289 212.228 C 219.973 211.954,223.934 206.334,222.954 205.609 C 222.720 205.436,222.517 204.755,222.377 203.673 C 222.258 202.755,221.958 200.451,221.711 198.553 C 220.081 186.031,217.924 174.790,216.457 171.181 C 215.811 169.590,215.019 165.074,214.378 159.325 C 214.135 157.154,213.766 154.834,213.556 154.169 C 213.200 153.040,213.199 152.873,213.541 151.656 C 213.742 150.939,214.012 149.303,214.140 148.020 C 214.269 146.737,214.421 145.531,214.479 145.340 C 214.571 145.031,215.460 136.299,215.467 135.626 C 215.471 135.289,211.121 131.747,210.934 131.934 C 210.858 132.010,210.789 135.887,210.782 140.549 C 210.774 145.211,210.688 148.826,210.590 148.581 C 210.410 148.131,209.998 136.385,210.039 132.882 L 210.061 130.984 208.004 129.331 C 206.873 128.422,205.988 127.571,206.039 127.440 C 206.089 127.309,205.683 126.829,205.137 126.372 L 204.144 125.543 195.673 125.543 L 187.201 125.543 187.201 124.099 L 187.201 122.655 193.796 122.597 L 200.392 122.538 193.762 117.195 C 190.115 114.257,184.963 110.100,182.311 107.958 C 179.660 105.815,174.391 101.566,170.604 98.515 C 159.772 89.790,160.340 90.388,160.116 87.476 C 160.040 86.498,159.960 85.698,159.938 85.698 C 159.915 85.698,158.934 86.342,157.758 87.128 C 145.915 95.047,129.716 94.776,117.973 86.465 C 116.706 85.568,115.971 85.168,115.971 85.375 C 115.971 85.893,115.093 85.257,114.932 84.622 C 114.860 84.336,114.145 83.434,113.345 82.618 C 93.653 62.548,103.033 29.281,130.217 22.781 C 135.002 21.636,141.187 21.549,145.687 22.561 M136.338 35.668 C 119.623 37.040,110.691 57.190,120.934 70.420 C 133.836 87.083,159.963 78.303,159.920 57.318 C 159.893 44.172,149.458 34.591,136.338 35.668 M142.571 41.289 C 151.045 43.054,156.840 51.906,155.049 60.353 C 152.515 72.311,138.913 77.397,129.173 70.029 C 127.909 69.072,125.988 67.046,125.988 66.669 C 125.988 66.582,125.642 65.945,125.219 65.253 C 118.045 53.510,128.948 38.453,142.571 41.289 M217.919 66.221 L 217.919 67.668 202.449 67.668 L 186.978 67.668 186.978 66.221 L 186.978 64.775 202.449 64.775 L 217.919 64.775 217.919 66.221 M299.540 101.070 C 301.219 101.701,302.727 104.063,302.727 106.062 C 302.727 107.738,300.159 110.972,295.952 114.597 L 294.853 115.544 294.816 120.154 C 294.788 123.559,294.840 124.618,295.013 124.207 C 297.236 118.935,298.566 116.857,300.245 116.032 C 305.233 113.583,309.873 119.642,306.158 123.754 C 304.917 125.128,302.419 125.977,297.273 126.776 C 295.927 126.985,294.712 127.186,294.574 127.222 C 294.437 127.258,294.254 127.845,294.169 128.525 C 293.665 132.564,290.803 139.329,288.101 142.869 C 287.003 144.308,287.304 144.231,289.628 142.481 C 293.848 139.300,296.158 138.575,298.386 139.731 C 303.290 142.274,301.215 149.555,295.723 149.073 C 294.096 148.930,291.256 148.110,288.111 146.877 C 286.127 146.098,285.730 146.007,285.476 146.269 C 281.762 150.108,278.401 155.331,276.380 160.406 C 274.718 164.577,274.592 164.542,278.213 160.923 C 281.843 157.295,282.931 156.583,284.808 156.610 C 290.140 156.687,291.434 164.142,286.477 166.227 C 285.151 166.785,276.249 165.885,274.911 165.058 C 274.803 164.992,274.619 165.264,274.500 165.663 C 273.496 169.036,273.074 170.755,273.215 170.896 C 273.307 170.988,275.702 171.076,278.538 171.091 C 281.375 171.107,284.222 171.132,284.866 171.147 L 286.038 171.174 285.908 172.120 C 285.837 172.641,285.638 173.868,285.466 174.847 C 285.294 175.826,284.849 178.531,284.477 180.857 C 284.105 183.183,283.661 185.888,283.489 186.867 C 283.118 188.989,282.684 191.622,281.914 196.439 C 281.601 198.397,281.241 200.526,281.113 201.169 L 280.881 202.337 271.659 202.337 L 262.437 202.337 262.437 186.612 L 262.437 170.887 265.387 171.027 C 267.009 171.104,268.676 171.092,269.090 171.000 L 269.845 170.832 267.931 169.946 C 266.878 169.458,266.013 168.934,266.008 168.781 C 265.974 167.741,263.996 168.765,263.996 169.823 C 263.996 170.456,263.938 170.506,263.216 170.506 C 262.442 170.506,262.437 170.501,262.437 169.505 C 262.437 168.763,262.524 168.503,262.771 168.503 C 262.955 168.503,263.105 168.465,263.105 168.419 C 263.105 168.373,262.955 167.975,262.771 167.536 C 262.522 166.940,262.437 165.843,262.438 163.224 L 262.438 159.711 263.384 159.120 C 264.598 158.361,265.807 158.038,266.822 158.203 L 267.627 158.333 267.483 157.464 C 267.404 156.986,267.338 156.311,267.337 155.965 C 267.335 155.381,267.286 155.345,266.667 155.481 C 266.247 155.574,265.999 155.539,265.999 155.388 C 265.999 155.256,265.648 155.147,265.220 155.147 C 264.535 155.147,264.441 155.215,264.441 155.711 C 264.441 156.021,264.290 156.332,264.107 156.403 C 263.923 156.473,263.773 156.670,263.773 156.841 C 263.773 157.037,263.528 157.151,263.105 157.151 L 262.437 157.151 262.437 153.923 L 262.437 150.696 263.105 150.696 C 263.695 150.696,263.773 150.772,263.773 151.348 C 263.773 151.880,264.007 152.177,265.053 152.971 C 265.804 153.541,266.362 154.145,266.404 154.434 C 266.453 154.776,266.629 154.925,266.982 154.925 C 268.035 154.925,267.827 147.828,266.686 144.844 L 266.449 144.224 264.443 144.375 L 262.437 144.527 262.437 140.676 C 262.437 137.028,262.458 136.844,262.827 137.165 C 263.041 137.352,263.342 137.459,263.495 137.404 C 263.666 137.341,263.773 137.502,263.774 137.822 C 263.774 138.108,264.083 138.792,264.459 139.343 C 264.839 139.900,265.080 140.122,265.000 139.844 C 264.877 139.418,264.941 139.343,265.427 139.343 C 265.956 139.343,265.999 139.269,265.999 138.342 C 265.999 137.345,265.995 137.340,265.220 137.340 C 264.450 137.340,264.441 137.328,264.441 136.383 C 264.441 135.309,264.733 134.891,265.487 134.891 C 265.853 134.891,265.999 134.763,265.999 134.441 C 265.999 133.451,268.097 133.391,268.540 134.368 C 268.652 134.615,268.953 134.909,269.208 135.022 C 269.986 135.364,270.013 137.340,269.239 137.340 C 268.748 137.340,268.670 137.437,268.670 138.046 C 268.670 138.991,268.110 139.566,267.189 139.566 C 266.486 139.566,266.444 139.610,266.444 140.348 C 266.444 140.778,266.332 141.310,266.194 141.530 C 266.000 141.841,266.031 142.099,266.331 142.679 C 267.226 144.410,267.985 147.115,268.136 149.115 L 268.290 151.155 268.758 149.757 C 269.167 148.535,269.304 148.349,269.839 148.288 C 270.390 148.225,270.451 148.131,270.451 147.350 C 270.451 146.325,270.855 146.021,272.217 146.021 L 273.122 146.021 273.122 147.134 L 273.122 148.247 273.901 148.247 C 274.620 148.247,274.680 148.299,274.680 148.923 C 274.680 149.776,274.090 150.696,273.541 150.696 C 273.311 150.696,273.122 150.801,273.122 150.930 C 273.122 151.172,272.097 151.666,271.051 151.929 C 270.496 152.068,270.451 152.028,270.451 151.388 C 270.451 150.729,270.408 150.696,269.560 150.696 C 268.675 150.696,268.670 150.700,268.670 151.559 C 268.670 152.054,268.528 152.540,268.336 152.699 C 267.883 153.075,267.839 158.486,268.289 158.486 C 269.191 158.486,270.040 159.690,269.822 160.657 C 269.628 161.512,269.648 161.603,270.029 161.603 C 270.380 161.603,270.451 161.436,270.451 160.601 C 270.451 160.050,270.351 159.599,270.228 159.599 C 269.865 159.599,269.974 159.019,270.443 158.455 L 270.881 157.930 270.889 158.653 C 270.896 159.348,270.932 159.377,271.786 159.377 L 272.677 159.377 272.677 158.394 C 272.677 157.823,272.560 157.357,272.398 157.283 C 272.245 157.213,272.471 157.213,272.899 157.282 C 274.525 157.544,275.653 159.162,275.224 160.615 L 275.030 161.269 274.953 160.434 C 274.878 159.624,274.850 159.599,273.999 159.599 L 273.122 159.599 273.122 160.588 C 273.122 161.569,273.128 161.576,273.957 161.645 L 274.791 161.714 273.905 162.326 C 272.815 163.079,272.677 163.085,272.677 162.382 C 272.677 161.881,272.588 161.825,271.786 161.825 L 270.896 161.825 270.896 162.806 C 270.896 163.659,270.951 163.773,271.318 163.677 C 271.785 163.554,272.067 164.814,272.362 168.333 C 272.526 170.293,272.756 170.376,273.123 168.607 C 273.692 165.868,275.664 160.470,277.348 157.040 C 278.940 153.799,279.665 152.577,281.578 149.917 C 282.366 148.820,282.455 148.896,279.354 148.040 C 272.884 146.255,270.851 144.945,270.235 142.166 C 269.350 138.173,273.789 134.924,277.499 136.849 C 279.214 137.738,280.782 141.027,282.140 146.578 C 282.638 148.616,282.722 148.671,283.600 147.538 C 284.009 147.010,284.870 146.001,285.513 145.295 C 288.499 142.018,293.704 132.358,292.869 131.644 C 292.843 131.622,291.579 130.775,290.061 129.763 C 284.034 125.746,282.622 123.871,283.457 120.998 C 284.383 117.814,287.671 116.284,290.484 117.728 C 292.843 118.940,293.422 120.611,293.424 126.207 C 293.425 129.431,293.685 129.059,294.044 125.320 C 294.425 121.345,294.326 116.382,293.817 113.968 C 292.828 109.277,292.513 105.660,292.964 104.156 C 293.723 101.622,296.964 100.102,299.540 101.070 M142.429 103.256 C 145.756 104.138,146.658 105.523,146.914 110.137 C 147.062 112.803,147.171 113.407,147.776 114.920 C 148.158 115.872,148.470 116.997,148.470 117.421 C 148.470 118.161,148.541 118.228,150.222 119.073 C 152.318 120.127,152.254 119.990,152.254 123.420 L 152.254 126.159 151.410 126.921 C 150.183 128.030,148.674 129.026,147.084 129.779 L 145.687 130.440 145.643 127.936 C 145.579 124.393,145.145 120.476,144.801 120.344 C 144.646 120.285,144.450 119.953,144.363 119.606 C 143.917 117.819,142.021 118.009,142.012 119.841 C 142.010 120.403,141.018 122.596,140.515 123.152 C 140.181 123.521,140.109 123.467,139.308 122.262 C 138.240 120.653,138.280 120.646,136.940 122.650 C 135.791 124.368,135.383 125.686,134.993 128.937 C 134.909 129.641,134.746 130.217,134.631 130.217 C 133.704 130.217,130.207 127.918,128.559 126.225 L 127.680 125.322 128.194 123.192 C 128.901 120.259,129.879 118.376,130.816 118.144 C 131.682 117.930,132.016 116.527,131.585 114.916 C 131.070 112.988,131.284 112.055,132.689 110.116 C 133.136 109.498,133.333 108.962,133.333 108.362 C 133.333 107.376,133.765 106.204,134.288 105.770 C 134.484 105.608,134.809 104.981,135.009 104.376 C 135.635 102.493,138.132 102.116,142.429 103.256 M136.895 119.970 L 136.338 120.116 136.851 120.395 C 137.638 120.823,138.425 120.656,137.867 120.179 C 137.595 119.947,137.259 119.875,136.895 119.970 M235.736 125.571 C 236.323 127.315,236.038 128.261,234.984 128.063 C 234.075 127.892,233.434 127.563,233.990 127.553 C 234.622 127.541,234.782 126.908,234.666 124.874 C 234.605 123.806,234.637 122.242,234.738 121.399 L 234.921 119.866 235.115 122.086 C 235.222 123.307,235.501 124.875,235.736 125.571 M263.439 130.214 C 263.861 130.290,263.846 130.440,263.416 130.440 C 262.990 130.440,262.955 130.715,263.095 132.944 C 263.100 133.036,263.255 133.111,263.439 133.111 C 263.680 133.111,263.773 133.358,263.773 134.001 C 263.773 134.794,263.714 134.891,263.235 134.891 C 262.939 134.891,262.647 135.017,262.585 135.170 C 262.523 135.323,262.465 134.167,262.455 132.602 C 262.439 129.958,262.465 129.771,262.827 129.965 C 263.041 130.079,263.317 130.191,263.439 130.214 M115.890 130.285 C 115.976 130.370,115.828 130.440,115.563 130.440 C 115.298 130.440,115.081 130.348,115.081 130.237 C 115.081 130.010,115.650 130.044,115.890 130.285 M115.971 134.001 C 115.971 134.743,115.897 134.891,115.526 134.891 C 115.155 134.891,115.081 134.743,115.081 134.001 C 115.081 133.259,115.155 133.111,115.526 133.111 C 115.897 133.111,115.971 133.259,115.971 134.001 M266.444 136.116 L 266.444 137.117 267.334 137.117 L 268.225 137.117 268.225 136.116 L 268.225 135.114 267.334 135.114 L 266.444 135.114 266.444 136.116 M114.636 136.561 C 114.636 136.867,114.535 137.117,114.413 137.117 C 114.290 137.117,114.190 136.867,114.190 136.561 C 114.190 136.255,114.290 136.004,114.413 136.004 C 114.535 136.004,114.636 136.255,114.636 136.561 M115.971 138.356 C 115.971 139.195,115.904 139.343,115.526 139.343 C 115.150 139.343,115.081 139.195,115.081 138.389 C 115.081 137.594,115.155 137.429,115.526 137.401 C 115.909 137.372,115.971 137.505,115.971 138.356 M263.773 140.122 C 264.188 140.551,264.555 140.902,264.588 140.902 C 264.621 140.902,264.441 140.551,264.189 140.122 C 263.936 139.694,263.569 139.343,263.373 139.343 C 263.124 139.343,263.243 139.576,263.773 140.122 M114.636 140.568 C 114.636 141.119,114.535 141.569,114.413 141.569 C 114.290 141.569,114.190 141.119,114.190 140.568 C 114.190 140.017,114.290 139.566,114.413 139.566 C 114.535 139.566,114.636 140.017,114.636 140.568 M115.971 142.794 C 115.971 143.647,115.905 143.795,115.526 143.795 C 115.147 143.795,115.081 143.647,115.081 142.794 C 115.081 141.940,115.147 141.792,115.526 141.792 C 115.905 141.792,115.971 141.940,115.971 142.794 M264.441 142.794 C 264.441 143.790,264.445 143.795,265.220 143.795 C 266.102 143.795,266.130 143.718,265.662 142.598 C 265.144 141.359,264.441 141.471,264.441 142.794 M114.636 145.019 C 114.636 145.570,114.535 146.021,114.413 146.021 C 114.290 146.021,114.190 145.570,114.190 145.019 C 114.190 144.469,114.290 144.018,114.413 144.018 C 114.535 144.018,114.636 144.469,114.636 145.019 M263.773 147.245 C 263.773 148.210,263.748 148.247,263.105 148.247 C 262.462 148.247,262.437 148.210,262.437 147.245 C 262.437 146.281,262.462 146.244,263.105 146.244 C 263.748 146.244,263.773 146.281,263.773 147.245 M270.896 149.471 L 270.896 150.473 271.786 150.473 L 272.677 150.473 272.677 149.471 L 272.677 148.470 271.786 148.470 L 270.896 148.470 270.896 149.471 M210.160 152.142 C 211.024 155.812,210.996 155.910,208.792 156.910 C 206.222 158.075,205.601 157.420,205.579 153.526 L 205.565 150.838 206.312 150.398 C 209.058 148.784,209.406 148.942,210.160 152.142 M142.794 160.688 C 144.896 161.618,146.021 163.128,146.021 165.019 C 146.021 165.607,146.256 166.515,146.609 167.284 C 147.614 169.480,147.595 171.323,146.552 172.860 C 146.165 173.430,146.012 173.906,146.076 174.339 C 146.144 174.807,146.090 174.945,145.873 174.857 C 145.709 174.790,145.426 174.675,145.242 174.601 C 144.803 174.423,144.803 176.089,145.244 179.744 C 145.422 181.213,145.569 183.734,145.571 185.347 L 145.576 188.278 143.962 188.655 C 141.870 189.143,138.588 189.141,136.482 188.649 L 134.845 188.268 134.999 186.788 C 135.335 183.559,135.731 182.289,136.998 180.381 L 138.200 178.569 137.504 178.430 C 135.719 178.073,135.380 177.128,136.481 175.582 C 136.930 174.952,136.934 174.915,136.539 175.030 C 135.816 175.241,132.633 175.667,132.532 175.567 C 132.480 175.515,132.589 175.109,132.774 174.666 C 133.193 173.662,133.192 172.970,132.770 172.412 C 132.262 171.740,132.380 170.782,133.134 169.465 C 133.692 168.489,133.799 168.099,133.690 167.434 C 133.287 164.960,133.306 164.639,133.940 163.393 C 135.445 160.433,139.453 159.209,142.794 160.688 M264.441 165.053 C 264.441 166.049,264.445 166.055,265.220 166.055 C 265.995 166.055,265.999 166.049,265.999 165.053 C 265.999 164.056,265.995 164.051,265.220 164.051 C 264.445 164.051,264.441 164.056,264.441 165.053 M266.444 167.279 L 266.444 168.280 267.334 168.280 L 268.225 168.280 268.225 167.279 L 268.225 166.277 267.334 166.277 L 266.444 166.277 266.444 167.279 M217.696 181.970 L 217.696 183.417 202.449 183.417 L 187.201 183.417 187.201 181.970 L 187.201 180.523 202.449 180.523 L 217.696 180.523 217.696 181.970 " stroke="none" fill="#f4f6f5" fill-rule="evenodd"></path><path id="path3" d="M136.004 41.275 C 125.064 43.706,119.548 55.970,125.219 65.253 C 125.642 65.945,125.988 66.615,125.988 66.743 C 125.988 66.870,126.087 67.035,126.208 67.110 C 126.329 67.185,126.374 67.106,126.308 66.935 C 125.820 65.663,127.833 62.657,129.302 62.462 C 130.862 62.255,132.519 61.332,133.675 60.027 C 134.236 59.394,135.015 58.648,135.405 58.370 L 136.116 57.864 136.248 58.370 C 136.338 58.718,136.408 58.521,136.470 57.742 C 136.547 56.785,136.505 56.623,136.204 56.703 C 135.974 56.763,135.678 56.511,135.376 56.000 C 135.118 55.562,134.558 55.037,134.132 54.834 C 132.487 54.049,132.461 50.348,134.092 49.199 C 134.348 49.019,135.174 48.299,135.928 47.600 C 136.899 46.698,137.580 46.260,138.265 46.096 C 138.797 45.969,139.818 45.665,140.535 45.421 C 142.126 44.879,142.804 45.082,144.061 46.475 C 145.399 47.958,145.615 50.905,144.378 50.817 C 143.834 50.778,143.791 50.811,144.091 51.039 C 145.333 51.980,144.687 55.956,143.113 57.058 C 142.769 57.299,142.675 57.701,142.604 59.228 C 142.557 60.259,142.560 60.626,142.612 60.045 C 142.663 59.463,142.758 58.987,142.822 58.987 C 143.252 58.987,146.112 61.126,146.824 61.980 C 147.300 62.552,148.155 63.307,148.724 63.658 C 149.881 64.372,150.726 65.374,151.270 66.674 L 151.635 67.549 152.165 66.885 C 161.153 55.632,150.114 38.139,136.004 41.275 M172.955 48.080 L 172.955 49.416 202.449 49.416 L 231.942 49.416 231.942 48.080 L 231.942 46.745 202.449 46.745 L 172.955 46.745 172.955 48.080 M173.845 57.206 L 173.845 58.542 202.894 58.542 L 231.942 58.542 231.942 57.206 L 231.942 55.871 202.894 55.871 L 173.845 55.871 173.845 57.206 M140.403 62.706 C 140.680 62.759,141.081 62.757,141.294 62.702 C 141.506 62.646,141.280 62.602,140.790 62.605 C 140.301 62.607,140.126 62.653,140.403 62.706 M127.546 68.670 C 127.961 69.098,128.351 69.449,128.412 69.449 C 128.474 69.449,128.184 69.098,127.769 68.670 C 127.353 68.242,126.963 67.891,126.902 67.891 C 126.841 67.891,127.131 68.242,127.546 68.670 M222.148 88.258 C 222.454 88.433,222.805 88.576,222.927 88.576 C 223.050 88.576,222.899 88.433,222.593 88.258 C 222.287 88.083,221.937 87.940,221.814 87.940 C 221.692 87.940,221.842 88.083,222.148 88.258 M216.872 93.044 C 216.872 93.717,216.914 93.993,216.965 93.656 C 217.016 93.319,217.016 92.769,216.965 92.432 C 216.914 92.095,216.872 92.371,216.872 93.044 M135.968 102.939 C 135.576 103.162,135.250 103.651,135.009 104.376 C 134.809 104.981,134.484 105.608,134.288 105.770 C 133.765 106.204,133.333 107.376,133.333 108.362 C 133.333 108.962,133.136 109.498,132.689 110.116 C 131.284 112.055,131.070 112.988,131.585 114.916 C 132.016 116.527,131.682 117.930,130.816 118.144 C 129.879 118.376,128.901 120.259,128.194 123.192 L 127.680 125.322 128.559 126.225 C 130.202 127.913,133.703 130.217,134.625 130.217 C 134.737 130.217,134.951 129.318,135.101 128.218 C 135.511 125.223,135.840 124.259,137.079 122.426 L 138.207 120.757 137.530 120.614 C 136.452 120.386,136.307 120.054,137.212 119.884 C 138.094 119.719,138.160 119.506,137.682 118.361 C 137.385 117.652,137.395 117.468,137.793 116.336 C 138.389 114.639,138.360 114.488,137.337 113.966 C 136.319 113.447,135.114 111.926,135.114 111.160 C 135.114 109.711,137.391 105.593,137.677 106.524 C 138.125 107.981,138.732 108.435,141.848 109.641 C 142.674 109.961,143.350 110.315,143.350 110.428 C 143.350 110.540,143.100 111.692,142.794 112.988 C 141.965 116.492,142.006 116.874,143.350 118.176 C 144.008 118.814,144.463 119.451,144.463 119.734 C 144.463 119.998,144.602 120.268,144.772 120.333 C 145.147 120.477,145.576 124.226,145.643 127.936 L 145.687 130.440 147.084 129.779 C 148.674 129.026,150.183 128.030,151.410 126.921 L 152.254 126.159 152.254 123.420 C 152.254 119.990,152.318 120.127,150.222 119.073 C 148.541 118.228,148.470 118.161,148.470 117.421 C 148.470 116.997,148.158 115.872,147.776 114.920 C 147.171 113.407,147.062 112.803,146.914 110.137 C 146.658 105.523,145.756 104.138,142.429 103.256 C 140.168 102.656,136.755 102.489,135.968 102.939 M223.412 115.202 C 222.889 116.299,222.963 116.485,223.510 115.449 C 223.758 114.979,223.922 114.554,223.873 114.506 C 223.825 114.458,223.618 114.771,223.412 115.202 M294.453 115.866 C 294.371 115.991,294.305 117.364,294.308 118.917 C 294.310 120.470,294.248 122.821,294.169 124.142 C 294.055 126.039,294.080 126.455,294.289 126.120 C 294.864 125.193,295.027 114.986,294.453 115.866 M222.900 119.087 C 222.900 120.495,222.936 121.071,222.980 120.367 C 223.024 119.663,223.024 118.511,222.980 117.807 C 222.936 117.104,222.900 117.679,222.900 119.087 M234.738 121.399 C 234.637 122.242,234.605 123.806,234.666 124.874 C 234.782 126.908,234.622 127.541,233.990 127.553 C 233.434 127.563,234.075 127.892,234.984 128.063 C 236.038 128.261,236.323 127.315,235.736 125.571 C 235.501 124.875,235.222 123.307,235.115 122.086 L 234.921 119.866 234.738 121.399 M206.043 127.492 C 205.983 127.589,206.863 128.414,207.998 129.326 L 210.061 130.984 210.039 132.882 C 209.998 136.385,210.410 148.131,210.590 148.581 C 210.688 148.826,210.774 145.211,210.782 140.549 C 210.789 135.887,210.857 132.011,210.932 131.936 C 211.130 131.738,215.261 135.118,215.479 135.658 C 215.640 136.054,215.666 136.026,215.679 135.446 C 215.688 135.016,215.540 134.681,215.267 134.510 C 215.033 134.364,212.998 132.754,210.744 130.933 C 206.139 127.211,206.193 127.251,206.043 127.492 M293.631 128.585 C 293.492 129.278,293.378 130.122,293.378 130.459 C 293.378 130.796,293.233 131.355,293.055 131.701 C 292.878 132.048,292.568 132.883,292.367 133.556 C 291.096 137.808,286.650 144.694,282.459 148.902 C 279.197 152.176,274.621 162.045,272.981 169.345 C 272.754 170.351,272.511 171.174,272.439 171.174 C 272.279 171.174,270.413 167.232,269.884 165.776 C 269.673 165.195,269.435 164.719,269.356 164.719 C 269.277 164.719,269.190 164.444,269.162 164.107 C 269.135 163.770,268.973 162.994,268.803 162.382 C 268.070 159.745,267.936 158.210,268.062 153.869 C 268.230 148.081,267.075 142.014,265.806 142.014 C 265.706 142.014,265.507 141.639,265.363 141.180 C 265.009 140.046,262.585 136.661,262.485 137.160 C 262.444 137.368,262.955 138.319,263.621 139.275 C 265.230 141.582,266.718 144.041,266.585 144.174 C 266.526 144.233,266.613 144.662,266.777 145.129 C 267.495 147.162,267.822 149.855,267.657 152.365 C 267.253 158.523,268.196 164.071,270.243 167.570 C 270.480 167.975,270.673 168.433,270.673 168.589 C 270.673 168.745,270.923 169.366,271.229 169.968 C 271.534 170.570,271.785 171.092,271.785 171.128 C 271.786 171.163,270.058 171.184,267.947 171.174 C 265.835 171.164,263.731 171.160,263.272 171.165 L 262.437 171.174 262.437 186.756 L 262.437 202.337 271.659 202.337 L 280.881 202.337 281.099 201.169 C 281.219 200.526,281.723 197.496,282.219 194.435 C 284.357 181.243,285.168 176.296,285.463 174.624 C 285.636 173.645,285.829 172.468,285.891 172.009 L 286.004 171.174 279.563 171.174 C 272.183 171.174,272.793 171.403,273.556 168.916 C 273.795 168.138,274.105 167.001,274.245 166.388 C 274.596 164.848,274.573 164.924,274.981 164.003 C 275.183 163.548,275.349 163.097,275.350 163.001 C 275.357 162.400,277.747 157.136,279.310 154.276 C 280.152 152.736,282.416 149.660,284.048 147.839 C 284.889 146.901,285.579 146.014,285.582 145.870 C 285.585 145.726,285.876 145.376,286.229 145.091 C 289.219 142.685,293.264 134.108,294.162 128.269 C 294.381 126.846,293.926 127.116,293.631 128.585 M215.299 137.563 C 215.299 137.991,215.345 138.166,215.401 137.952 C 215.457 137.738,215.457 137.387,215.401 137.173 C 215.345 136.959,215.299 137.134,215.299 137.563 M215.077 139.789 C 215.077 140.217,215.122 140.392,215.178 140.178 C 215.234 139.964,215.234 139.613,215.178 139.399 C 215.122 139.185,215.077 139.360,215.077 139.789 M214.854 142.237 C 214.854 142.666,214.900 142.841,214.956 142.627 C 215.012 142.412,215.012 142.062,214.956 141.848 C 214.900 141.633,214.854 141.809,214.854 142.237 M224.597 142.706 C 224.597 142.979,224.661 143.137,224.739 143.059 C 224.818 142.980,225.344 143.300,225.908 143.770 C 227.677 145.242,229.740 145.825,230.804 145.151 C 230.994 145.030,230.738 144.998,230.129 145.067 C 228.894 145.206,227.950 144.822,226.368 143.537 C 224.673 142.160,224.597 142.125,224.597 142.706 M214.191 147.691 C 214.193 148.180,214.239 148.354,214.292 148.078 C 214.345 147.801,214.343 147.400,214.288 147.187 C 214.232 146.974,214.188 147.201,214.191 147.691 M226.393 149.249 C 226.393 149.371,226.536 149.722,226.711 150.028 C 226.886 150.334,227.029 150.484,227.029 150.362 C 227.029 150.239,226.886 149.889,226.711 149.583 C 226.536 149.277,226.393 149.126,226.393 149.249 M227.239 151.029 C 227.359 151.274,227.621 151.675,227.820 151.920 L 228.183 152.365 227.964 151.920 C 227.844 151.675,227.582 151.274,227.383 151.029 L 227.021 150.584 227.239 151.029 M229.215 152.411 C 229.491 152.464,229.942 152.464,230.217 152.411 C 230.492 152.358,230.267 152.314,229.716 152.314 C 229.165 152.314,228.940 152.358,229.215 152.411 M232.332 152.633 C 232.607 152.686,233.058 152.686,233.333 152.633 C 233.609 152.580,233.383 152.537,232.832 152.537 C 232.282 152.537,232.056 152.580,232.332 152.633 M235.135 154.368 C 235.136 155.348,235.175 155.721,235.222 155.197 C 235.269 154.674,235.268 153.872,235.220 153.416 C 235.172 152.961,235.134 153.389,235.135 154.368 M235.352 159.377 C 235.352 160.173,235.393 160.498,235.442 160.100 C 235.491 159.702,235.491 159.051,235.442 158.653 C 235.393 158.255,235.352 158.581,235.352 159.377 M214.409 159.599 C 214.409 160.028,214.455 160.203,214.511 159.989 C 214.567 159.775,214.567 159.424,214.511 159.210 C 214.455 158.996,214.409 159.171,214.409 159.599 M137.386 160.453 C 135.756 161.034,134.667 161.964,133.940 163.393 C 133.306 164.639,133.287 164.960,133.690 167.434 C 133.799 168.099,133.692 168.489,133.134 169.465 C 132.380 170.782,132.262 171.740,132.770 172.412 C 133.192 172.970,133.193 173.662,132.774 174.666 C 132.589 175.109,132.482 175.517,132.537 175.571 C 132.638 175.673,136.896 175.048,136.988 174.919 C 137.324 174.442,138.230 172.712,138.230 172.547 C 138.230 172.427,137.805 172.079,137.284 171.774 C 135.262 170.585,134.285 168.225,134.899 166.013 C 135.122 165.213,135.145 165.198,135.815 165.432 C 136.250 165.583,137.340 165.617,138.776 165.524 C 140.914 165.386,141.125 165.412,142.310 165.954 C 143.003 166.272,143.921 166.549,144.349 166.571 C 145.594 166.635,145.355 168.705,143.880 170.638 C 142.813 172.035,143.404 173.616,145.375 174.636 C 146.190 175.057,146.182 175.060,146.074 174.329 C 146.012 173.907,146.170 173.424,146.552 172.860 C 147.595 171.323,147.614 169.480,146.609 167.284 C 146.256 166.515,146.021 165.607,146.021 165.019 C 146.021 161.504,141.354 159.037,137.386 160.453 M236.020 172.510 C 236.020 173.306,236.060 173.631,236.110 173.233 C 236.159 172.835,236.159 172.184,236.110 171.786 C 236.060 171.388,236.020 171.714,236.020 172.510 M143.684 175.595 C 142.665 176.224,142.257 176.789,141.941 178.006 C 141.642 179.158,140.570 181.191,140.261 181.191 C 140.164 181.191,139.706 180.640,139.242 179.967 C 138.185 178.432,138.281 178.412,136.931 180.467 C 135.742 182.279,135.327 183.637,134.999 186.788 L 134.845 188.268 136.482 188.649 C 138.596 189.143,141.869 189.143,143.981 188.650 L 145.614 188.270 145.518 184.675 C 145.400 180.239,144.903 175.181,144.585 175.182 C 144.457 175.182,144.051 175.368,143.684 175.595 M136.002 176.413 C 135.650 177.336,135.800 177.695,136.725 178.147 C 138.170 178.853,138.313 178.552,137.223 177.098 L 136.239 175.787 136.002 176.413 M236.009 178.297 C 236.009 178.848,236.053 179.073,236.106 178.798 C 236.159 178.523,236.159 178.072,236.106 177.796 C 236.053 177.521,236.009 177.746,236.009 178.297 M236.232 181.413 C 236.232 181.964,236.275 182.190,236.328 181.914 C 236.382 181.639,236.382 181.188,236.328 180.913 C 236.275 180.637,236.232 180.863,236.232 181.413 M236.455 184.307 C 236.455 184.858,236.498 185.083,236.551 184.808 C 236.604 184.533,236.604 184.082,236.551 183.806 C 236.498 183.531,236.455 183.756,236.455 184.307 M236.677 187.423 C 236.677 187.974,236.721 188.200,236.774 187.924 C 236.827 187.649,236.827 187.198,236.774 186.923 C 236.721 186.647,236.677 186.873,236.677 187.423 M236.903 190.428 C 236.905 191.041,236.948 191.265,236.999 190.926 C 237.050 190.588,237.049 190.087,236.996 189.813 C 236.943 189.540,236.901 189.816,236.903 190.428 M237.122 193.434 C 237.122 193.984,237.166 194.210,237.219 193.934 C 237.272 193.659,237.272 193.208,237.219 192.933 C 237.166 192.657,237.122 192.883,237.122 193.434 M237.356 196.995 C 237.356 197.791,237.396 198.116,237.445 197.718 C 237.495 197.321,237.495 196.669,237.445 196.272 C 237.396 195.874,237.356 196.199,237.356 196.995 M237.549 202.337 C 237.522 203.745,237.445 205.147,237.377 205.454 C 237.261 205.978,237.270 205.984,237.539 205.565 C 237.695 205.320,237.845 205.019,237.871 204.897 C 237.897 204.775,237.989 204.349,238.074 203.951 C 238.175 203.484,238.145 203.228,237.989 203.228 C 237.844 203.228,237.718 202.546,237.672 201.503 C 237.610 200.089,237.588 200.240,237.549 202.337 M222.479 204.214 C 222.589 205.251,223.484 206.676,223.484 205.815 C 223.484 205.636,223.373 205.454,223.239 205.409 C 223.104 205.364,222.852 204.830,222.678 204.222 L 222.362 203.116 222.479 204.214 M230.402 206.066 C 230.412 206.301,230.464 206.344,230.532 206.176 C 230.594 206.022,230.736 205.953,230.848 206.022 C 230.960 206.091,231.052 206.042,231.052 205.912 C 231.052 205.782,230.902 205.676,230.718 205.676 C 230.534 205.676,230.392 205.851,230.402 206.066 M221.202 215.405 C 221.477 215.458,221.928 215.458,222.204 215.405 C 222.479 215.352,222.254 215.308,221.703 215.308 C 221.152 215.308,220.927 215.352,221.202 215.405 M226.544 216.969 C 227.065 217.016,227.916 217.016,228.436 216.969 C 228.957 216.922,228.531 216.884,227.490 216.884 C 226.450 216.884,226.024 216.922,226.544 216.969 " stroke="none" fill="#9f99a7" fill-rule="evenodd"></path><path id="path4" d="M135.841 21.974 C 136.179 22.025,136.680 22.024,136.954 21.971 C 137.227 21.918,136.950 21.876,136.338 21.878 C 135.726 21.879,135.502 21.923,135.841 21.974 M139.733 21.975 C 140.131 22.025,140.782 22.025,141.180 21.975 C 141.578 21.926,141.252 21.885,140.456 21.885 C 139.661 21.885,139.335 21.926,139.733 21.975 M152.922 25.042 C 153.228 25.217,153.578 25.360,153.701 25.360 C 153.823 25.360,153.673 25.217,153.367 25.042 C 153.061 24.867,152.710 24.724,152.588 24.724 C 152.465 24.724,152.615 24.867,152.922 25.042 M121.925 25.724 C 121.344 26.027,120.868 26.324,120.868 26.385 C 120.868 26.485,123.072 25.444,123.298 25.238 C 123.574 24.986,122.849 25.243,121.925 25.724 M154.480 25.698 C 154.480 25.759,154.780 25.965,155.147 26.155 C 155.515 26.345,155.815 26.450,155.815 26.389 C 155.815 26.328,155.515 26.122,155.147 25.932 C 154.780 25.742,154.480 25.637,154.480 25.698 M113.183 32.332 L 111.408 34.168 113.244 32.393 C 114.254 31.416,115.081 30.590,115.081 30.556 C 115.081 30.394,114.832 30.626,113.183 32.332 M164.719 33.723 C 165.134 34.151,165.524 34.502,165.585 34.502 C 165.647 34.502,165.357 34.151,164.942 33.723 C 164.526 33.294,164.136 32.944,164.075 32.944 C 164.014 32.944,164.304 33.294,164.719 33.723 M136.731 35.552 C 137.069 35.603,137.570 35.602,137.844 35.549 C 138.118 35.496,137.841 35.454,137.229 35.456 C 136.617 35.458,136.393 35.501,136.731 35.552 M138.957 35.552 C 139.295 35.603,139.796 35.602,140.070 35.549 C 140.344 35.496,140.067 35.454,139.455 35.456 C 138.843 35.458,138.619 35.501,138.957 35.552 M147.375 37.479 C 147.604 37.684,148.915 38.286,148.915 38.186 C 148.915 38.058,147.681 37.396,147.442 37.396 C 147.354 37.396,147.324 37.433,147.375 37.479 M106.723 40.978 C 106.527 41.356,106.406 41.706,106.455 41.754 C 106.503 41.802,106.709 41.493,106.913 41.066 C 107.370 40.106,107.212 40.032,106.723 40.978 M153.701 41.848 C 154.179 42.337,154.620 42.738,154.681 42.738 C 154.743 42.738,154.401 42.337,153.923 41.848 C 153.445 41.358,153.004 40.957,152.942 40.957 C 152.881 40.957,153.222 41.358,153.701 41.848 M138.944 49.964 C 138.707 50.266,138.448 50.915,138.370 51.406 C 138.284 51.944,137.944 52.620,137.514 53.110 C 136.916 53.791,136.792 54.124,136.747 55.175 C 136.717 55.864,136.576 57.307,136.432 58.382 C 136.123 60.700,136.190 60.826,138.300 61.881 C 139.620 62.540,141.535 62.788,142.148 62.378 C 142.286 62.286,142.451 61.158,142.527 59.795 C 142.641 57.731,142.725 57.330,143.098 57.068 C 144.777 55.893,145.375 51.560,143.941 50.971 C 143.677 50.862,142.743 50.468,141.866 50.095 C 139.934 49.273,139.503 49.253,138.944 49.964 M173.683 54.535 C 173.683 55.086,173.727 55.312,173.780 55.036 C 173.833 54.761,173.833 54.310,173.780 54.035 C 173.727 53.759,173.683 53.984,173.683 54.535 M102.905 55.203 C 102.905 55.876,102.946 56.152,102.997 55.815 C 103.048 55.479,103.048 54.928,102.997 54.591 C 102.946 54.254,102.905 54.530,102.905 55.203 M116.477 56.093 C 116.477 56.644,116.520 56.870,116.573 56.594 C 116.626 56.319,116.626 55.868,116.573 55.593 C 116.520 55.317,116.477 55.543,116.477 56.093 M160.126 57.318 C 160.126 58.542,160.164 59.014,160.209 58.368 C 160.254 57.721,160.254 56.719,160.208 56.142 C 160.162 55.564,160.125 56.093,160.126 57.318 M116.477 58.542 C 116.477 59.093,116.520 59.318,116.573 59.043 C 116.626 58.767,116.626 58.317,116.573 58.041 C 116.520 57.766,116.477 57.991,116.477 58.542 M102.894 59.321 C 102.897 59.811,102.942 59.985,102.995 59.708 C 103.049 59.431,103.047 59.030,102.991 58.818 C 102.935 58.605,102.892 58.831,102.894 59.321 M173.683 60.323 C 173.683 60.874,173.727 61.099,173.780 60.824 C 173.833 60.548,173.833 60.097,173.780 59.822 C 173.727 59.546,173.683 59.772,173.683 60.323 M103.112 61.881 C 103.112 62.309,103.158 62.485,103.214 62.270 C 103.270 62.056,103.270 61.706,103.214 61.491 C 103.158 61.277,103.112 61.452,103.112 61.881 M187.051 66.221 C 187.052 67.078,187.093 67.402,187.141 66.940 C 187.189 66.478,187.188 65.777,187.139 65.382 C 187.090 64.987,187.050 65.364,187.051 66.221 M217.769 66.221 C 217.770 67.078,217.810 67.402,217.859 66.940 C 217.907 66.478,217.906 65.777,217.857 65.382 C 217.808 64.987,217.768 65.364,217.769 66.221 M118.197 65.971 C 118.197 66.211,119.081 67.891,119.208 67.891 C 119.269 67.891,119.104 67.465,118.842 66.945 C 118.326 65.922,118.197 65.727,118.197 65.971 M153.915 72.621 L 152.810 73.790 153.979 72.685 C 155.065 71.659,155.250 71.452,155.083 71.452 C 155.048 71.452,154.522 71.978,153.915 72.621 M109.002 77.480 C 109.224 77.856,109.547 78.282,109.721 78.426 C 109.895 78.569,109.756 78.261,109.413 77.741 C 108.692 76.648,108.408 76.467,109.002 77.480 M136.617 79.178 C 136.892 79.231,137.343 79.231,137.618 79.178 C 137.894 79.125,137.668 79.081,137.117 79.081 C 136.566 79.081,136.341 79.125,136.617 79.178 M139.402 79.180 C 139.740 79.231,140.241 79.230,140.515 79.177 C 140.789 79.124,140.512 79.083,139.900 79.084 C 139.288 79.086,139.064 79.129,139.402 79.180 M110.851 79.981 C 110.851 80.019,111.177 80.344,111.575 80.704 L 112.298 81.358 111.644 80.634 C 111.035 79.960,110.851 79.809,110.851 79.981 M114.190 83.436 C 114.190 83.552,114.326 83.700,114.493 83.763 C 114.659 83.827,114.853 84.163,114.924 84.511 C 115.076 85.251,115.971 85.953,115.971 85.332 C 115.971 84.997,116.014 85.001,116.416 85.364 C 116.661 85.586,116.861 85.724,116.861 85.671 C 116.861 85.618,116.260 85.046,115.526 84.399 C 114.791 83.753,114.190 83.319,114.190 83.436 M159.999 85.420 C 159.959 85.512,159.986 86.188,160.059 86.923 L 160.192 88.258 160.230 86.756 C 160.264 85.387,160.192 84.972,159.999 85.420 M154.257 89.037 C 153.829 89.272,153.558 89.468,153.656 89.473 C 153.892 89.486,155.147 88.833,155.147 88.698 C 155.147 88.552,155.134 88.557,154.257 89.037 M137.841 92.981 C 138.178 93.032,138.728 93.032,139.065 92.981 C 139.402 92.930,139.126 92.888,138.453 92.888 C 137.780 92.888,137.504 92.930,137.841 92.981 M220.946 93.717 C 220.224 94.068,219.155 94.478,218.572 94.627 C 216.261 95.220,216.369 99.730,218.751 102.112 L 219.628 102.989 219.760 107.766 C 219.919 113.509,219.816 112.996,221.011 113.976 C 221.924 114.724,223.527 114.946,224.013 114.392 C 224.243 114.129,227.680 108.893,227.871 108.514 C 228.026 108.207,227.998 107.346,227.782 105.732 C 227.610 104.446,227.502 103.019,227.541 102.560 C 227.587 102.030,227.518 101.725,227.353 101.725 C 226.973 101.725,226.822 101.179,226.822 99.800 C 226.822 98.467,226.631 97.974,225.692 96.893 C 225.307 96.450,225.014 95.794,224.920 95.165 C 224.591 92.970,223.385 92.531,220.946 93.717 M295.432 101.306 C 293.687 102.169,292.710 103.862,292.710 106.020 C 292.710 107.684,293.668 113.996,294.181 115.713 C 294.402 116.455,301.207 109.824,302.126 107.970 C 304.232 103.720,299.690 99.198,295.432 101.306 M136.714 107.261 C 134.580 110.388,134.792 112.668,137.337 113.966 C 138.359 114.487,138.389 114.641,137.799 116.319 C 137.389 117.486,137.386 117.595,137.740 118.550 C 137.985 119.212,138.034 119.607,137.883 119.710 C 137.745 119.805,138.151 120.590,138.913 121.700 C 140.085 123.408,140.194 123.507,140.521 123.146 C 141.038 122.574,142.010 120.391,142.012 119.794 C 142.013 119.509,142.290 119.007,142.627 118.679 L 143.239 118.083 142.738 117.591 C 142.077 116.943,142.089 115.971,142.794 112.988 C 143.100 111.692,143.350 110.539,143.350 110.424 C 143.350 110.309,142.824 110.019,142.181 109.778 C 139.048 108.605,137.785 107.752,137.785 106.808 C 137.785 106.067,137.425 106.219,136.714 107.261 M300.946 115.710 C 298.632 116.643,297.297 118.582,294.942 124.430 C 294.671 125.103,294.342 125.904,294.211 126.210 C 293.772 127.233,293.811 127.344,294.565 127.226 C 304.419 125.679,306.308 124.855,307.313 121.666 C 308.454 118.047,304.447 114.299,300.946 115.710 M287.145 117.266 C 283.982 118.129,282.382 121.610,283.832 124.474 C 284.580 125.951,291.999 131.578,293.090 131.496 C 293.849 131.439,293.518 121.532,292.705 120.000 C 291.589 117.896,289.180 116.711,287.145 117.266 M200.083 122.270 C 200.369 122.625,199.976 122.649,193.795 122.649 L 187.201 122.649 187.201 124.096 L 187.201 125.543 195.715 125.540 L 204.229 125.538 203.450 124.929 C 203.022 124.594,202.020 123.773,201.224 123.105 C 200.428 122.437,199.915 122.061,200.083 122.270 M224.151 122.471 C 224.274 122.618,224.374 123.276,224.374 123.934 C 224.374 126.388,226.407 130.669,228.283 132.166 C 228.694 132.494,228.929 132.825,228.805 132.901 C 228.681 132.978,228.961 133.314,229.426 133.649 C 230.044 134.094,230.117 134.118,229.699 133.740 L 229.126 133.222 230.033 132.777 C 231.132 132.237,231.694 130.885,231.710 128.744 L 231.720 127.382 229.955 125.696 C 227.561 123.410,225.915 122.330,225.078 122.497 C 224.727 122.567,224.324 122.530,224.184 122.414 C 224.002 122.264,223.993 122.281,224.151 122.471 M262.455 132.602 C 262.465 134.167,262.523 135.323,262.585 135.170 C 262.647 135.017,262.939 134.891,263.235 134.891 C 263.714 134.891,263.773 134.794,263.773 134.001 C 263.773 133.358,263.680 133.111,263.439 133.111 C 263.255 133.111,263.100 133.036,263.095 132.944 C 262.955 130.715,262.990 130.440,263.416 130.440 C 263.846 130.440,263.861 130.290,263.439 130.214 C 263.317 130.191,263.041 130.079,262.827 129.965 C 262.465 129.771,262.439 129.958,262.455 132.602 M115.081 130.237 C 115.081 130.348,115.298 130.440,115.563 130.440 C 115.828 130.440,115.976 130.370,115.890 130.285 C 115.650 130.044,115.081 130.010,115.081 130.237 M115.081 134.001 C 115.081 134.743,115.155 134.891,115.526 134.891 C 115.897 134.891,115.971 134.743,115.971 134.001 C 115.971 133.259,115.897 133.111,115.526 133.111 C 115.155 133.111,115.081 133.259,115.081 134.001 M266.500 133.781 C 266.212 133.899,265.999 134.179,265.999 134.439 C 265.999 134.763,265.853 134.891,265.487 134.891 C 264.733 134.891,264.441 135.309,264.441 136.383 C 264.441 137.328,264.450 137.340,265.220 137.340 C 265.995 137.340,265.999 137.345,265.999 138.342 C 265.999 139.250,265.949 139.343,265.466 139.343 C 265.173 139.343,264.874 139.499,264.801 139.689 C 264.728 139.879,264.750 139.984,264.849 139.923 C 264.949 139.861,265.157 140.307,265.312 140.913 C 265.468 141.519,265.650 142.014,265.717 142.014 C 266.043 142.014,266.431 141.146,266.437 140.401 C 266.444 139.604,266.478 139.566,267.189 139.566 C 268.110 139.566,268.670 138.991,268.670 138.046 C 268.670 137.437,268.748 137.340,269.239 137.340 C 270.040 137.340,269.982 135.362,269.171 135.006 C 268.895 134.885,268.670 134.672,268.670 134.532 C 268.670 133.903,267.330 133.439,266.500 133.781 M268.225 136.116 L 268.225 137.117 267.334 137.117 L 266.444 137.117 266.444 136.116 L 266.444 135.114 267.334 135.114 L 268.225 135.114 268.225 136.116 M234.449 135.942 C 234.788 135.993,235.289 135.991,235.562 135.939 C 235.836 135.886,235.559 135.844,234.947 135.846 C 234.335 135.847,234.111 135.890,234.449 135.942 M114.190 136.561 C 114.190 136.867,114.290 137.117,114.413 137.117 C 114.535 137.117,114.636 136.867,114.636 136.561 C 114.636 136.255,114.535 136.004,114.413 136.004 C 114.290 136.004,114.190 136.255,114.190 136.561 M273.679 136.378 C 269.744 137.488,268.923 143.290,272.401 145.414 C 274.071 146.434,282.273 149.186,282.618 148.842 C 283.079 148.381,280.076 139.671,278.861 137.947 C 278.043 136.785,275.242 135.937,273.679 136.378 M115.081 138.389 C 115.081 139.195,115.150 139.343,115.526 139.343 C 115.904 139.343,115.971 139.195,115.971 138.356 C 115.971 137.505,115.909 137.372,115.526 137.401 C 115.155 137.429,115.081 137.594,115.081 138.389 M263.232 137.537 C 263.165 137.646,263.259 137.859,263.442 138.010 C 263.717 138.239,263.773 138.206,263.773 137.812 C 263.773 137.335,263.457 137.174,263.232 137.537 M262.439 141.100 L 262.437 144.527 264.490 144.372 C 266.927 144.188,266.800 144.270,266.209 143.267 C 265.716 142.432,265.361 142.128,265.768 142.890 C 266.151 143.605,266.036 143.795,265.220 143.795 C 264.445 143.795,264.441 143.790,264.441 142.794 C 264.441 141.905,264.497 141.791,264.942 141.785 C 265.393 141.779,265.403 141.756,265.048 141.549 C 264.831 141.423,264.706 141.236,264.769 141.134 C 264.832 141.032,264.727 140.888,264.537 140.815 C 264.343 140.741,264.260 140.568,264.350 140.423 C 264.441 140.276,264.413 140.225,264.285 140.304 C 264.161 140.380,263.828 140.195,263.544 139.893 C 263.260 139.591,263.145 139.343,263.289 139.343 C 263.675 139.343,263.598 139.087,262.987 138.342 L 262.440 137.674 262.439 141.100 M294.936 139.321 C 293.754 139.709,291.624 140.977,289.648 142.465 C 288.515 143.319,287.534 144.018,287.469 144.018 C 287.276 144.018,285.497 145.784,285.602 145.871 C 286.431 146.554,293.882 148.911,295.723 149.073 C 300.275 149.473,302.926 144.181,299.855 140.825 C 298.727 139.592,296.334 138.861,294.936 139.321 M114.190 140.568 C 114.190 141.119,114.290 141.569,114.413 141.569 C 114.535 141.569,114.636 141.119,114.636 140.568 C 114.636 140.017,114.535 139.566,114.413 139.566 C 114.290 139.566,114.190 140.017,114.190 140.568 M115.081 142.794 C 115.081 143.647,115.147 143.795,115.526 143.795 C 115.905 143.795,115.971 143.647,115.971 142.794 C 115.971 141.940,115.905 141.792,115.526 141.792 C 115.147 141.792,115.081 141.940,115.081 142.794 M114.190 145.019 C 114.190 145.570,114.290 146.021,114.413 146.021 C 114.535 146.021,114.636 145.570,114.636 145.019 C 114.636 144.469,114.535 144.018,114.413 144.018 C 114.290 144.018,114.190 144.469,114.190 145.019 M229.215 145.065 C 229.491 145.118,229.942 145.118,230.217 145.065 C 230.492 145.012,230.267 144.969,229.716 144.969 C 229.165 144.969,228.940 145.012,229.215 145.065 M270.840 146.262 C 270.575 146.416,270.451 146.764,270.451 147.353 C 270.451 148.131,270.389 148.225,269.839 148.288 C 269.288 148.351,269.167 148.537,268.629 150.139 C 267.924 152.238,267.823 153.125,268.336 152.699 C 268.528 152.540,268.670 152.054,268.670 151.559 C 268.670 150.700,268.675 150.696,269.560 150.696 C 270.408 150.696,270.451 150.729,270.451 151.388 C 270.451 152.028,270.496 152.068,271.051 151.929 C 272.097 151.666,273.122 151.172,273.122 150.930 C 273.122 150.801,273.311 150.696,273.541 150.696 C 274.090 150.696,274.680 149.776,274.680 148.923 C 274.680 148.299,274.620 148.247,273.901 148.247 L 273.122 148.247 273.122 147.134 L 273.122 146.021 272.176 146.028 C 271.656 146.032,271.055 146.137,270.840 146.262 M262.437 147.245 C 262.437 148.210,262.462 148.247,263.105 148.247 C 263.748 148.247,263.773 148.210,263.773 147.245 C 263.773 146.281,263.748 146.244,263.105 146.244 C 262.462 146.244,262.437 146.281,262.437 147.245 M272.677 149.471 L 272.677 150.473 271.786 150.473 L 270.896 150.473 270.896 149.471 L 270.896 148.470 271.786 148.470 L 272.677 148.470 272.677 149.471 M207.870 149.665 C 207.424 149.827,206.723 150.157,206.312 150.398 L 205.565 150.838 205.579 153.526 C 205.601 157.420,206.222 158.075,208.792 156.910 C 210.996 155.910,211.024 155.812,210.160 152.142 C 209.465 149.189,209.394 149.113,207.870 149.665 M262.437 153.923 L 262.437 157.151 263.105 157.151 C 263.528 157.151,263.773 157.037,263.773 156.841 C 263.773 156.670,263.923 156.473,264.107 156.403 C 264.290 156.332,264.441 156.021,264.441 155.711 C 264.441 155.215,264.535 155.147,265.220 155.147 C 265.648 155.147,265.999 155.258,265.999 155.394 C 265.999 155.550,266.217 155.586,266.590 155.493 C 266.974 155.396,267.246 155.446,267.366 155.635 C 267.495 155.840,267.551 155.777,267.554 155.426 C 267.556 155.043,267.430 154.925,267.016 154.925 C 266.628 154.925,266.455 154.786,266.404 154.434 C 266.362 154.145,265.804 153.541,265.053 152.971 C 264.007 152.177,263.773 151.880,263.773 151.348 C 263.773 150.772,263.695 150.696,263.105 150.696 L 262.437 150.696 262.437 153.923 M283.287 156.816 C 281.898 157.344,280.451 158.544,277.442 161.664 C 275.881 163.283,274.520 164.583,274.419 164.552 C 274.318 164.521,274.235 164.543,274.235 164.600 C 274.235 165.554,284.753 166.952,286.477 166.227 C 292.174 163.831,289.052 154.622,283.287 156.816 M272.398 157.283 C 272.560 157.357,272.677 157.823,272.677 158.394 L 272.677 159.377 271.786 159.377 C 270.932 159.377,270.896 159.348,270.889 158.653 L 270.881 157.930 270.443 158.455 C 269.974 159.019,269.865 159.599,270.228 159.599 C 270.351 159.599,270.451 160.050,270.451 160.601 C 270.451 161.436,270.380 161.603,270.029 161.603 C 269.648 161.603,269.628 161.512,269.822 160.657 C 270.027 159.750,270.005 159.685,269.306 159.098 C 268.707 158.597,268.002 158.296,268.002 158.542 C 268.002 158.711,268.716 162.103,268.951 163.050 C 269.197 164.043,269.286 164.156,269.783 164.105 C 270.303 164.051,270.296 164.068,269.672 164.365 C 269.304 164.540,269.115 164.691,269.252 164.701 C 269.388 164.711,269.673 165.195,269.884 165.776 C 270.459 167.358,272.285 171.174,272.467 171.174 C 272.555 171.174,272.669 170.879,272.722 170.518 C 272.775 170.157,272.748 169.906,272.662 169.959 C 272.576 170.012,272.441 169.280,272.362 168.333 C 272.067 164.814,271.785 163.554,271.318 163.677 C 270.951 163.773,270.896 163.659,270.896 162.806 L 270.896 161.825 271.786 161.825 C 272.588 161.825,272.677 161.881,272.677 162.382 C 272.677 163.085,272.815 163.079,273.905 162.326 L 274.791 161.714 273.957 161.645 C 273.128 161.576,273.122 161.569,273.122 160.588 L 273.122 159.599 273.999 159.599 C 274.850 159.599,274.878 159.624,274.953 160.434 L 275.030 161.269 275.224 160.615 C 275.653 159.162,274.525 157.544,272.899 157.282 C 272.471 157.213,272.245 157.213,272.398 157.283 M264.997 158.351 C 264.508 158.505,263.732 158.873,263.275 159.170 L 262.443 159.711 262.440 163.224 C 262.438 165.848,262.522 166.939,262.771 167.536 C 262.955 167.975,263.105 168.373,263.105 168.419 C 263.105 168.465,262.955 168.503,262.771 168.503 C 262.524 168.503,262.437 168.763,262.437 169.505 C 262.437 170.501,262.442 170.506,263.216 170.506 C 263.938 170.506,263.996 170.456,263.996 169.823 C 263.996 168.765,265.974 167.741,266.008 168.781 C 266.013 168.934,266.882 169.460,267.940 169.950 C 269.732 170.780,269.818 170.850,269.211 170.981 C 268.789 171.072,269.128 171.131,270.173 171.148 C 271.060 171.162,271.786 171.149,271.785 171.119 C 271.785 171.088,271.534 170.570,271.229 169.968 C 270.923 169.366,270.673 168.745,270.673 168.589 C 270.673 168.433,270.477 167.973,270.236 167.565 C 269.423 166.187,268.381 162.914,267.885 160.179 C 267.710 159.212,267.539 158.399,267.506 158.372 C 267.221 158.139,265.715 158.126,264.997 158.351 M265.999 165.053 C 265.999 166.049,265.995 166.055,265.220 166.055 C 264.445 166.055,264.441 166.049,264.441 165.053 C 264.441 164.056,264.445 164.051,265.220 164.051 C 265.995 164.051,265.999 164.056,265.999 165.053 M134.899 166.013 C 134.285 168.225,135.262 170.585,137.284 171.774 C 137.805 172.079,138.230 172.422,138.230 172.534 C 138.230 172.817,136.899 175.152,136.651 175.305 C 136.540 175.374,136.450 175.566,136.450 175.732 C 136.450 176.063,139.923 181.038,140.231 181.148 C 140.528 181.254,141.620 179.245,141.943 177.998 C 142.274 176.722,143.098 175.746,144.172 175.358 C 145.106 175.020,145.099 174.667,144.135 173.600 C 142.987 172.329,142.946 171.861,143.880 170.638 C 145.355 168.705,145.594 166.635,144.349 166.571 C 143.921 166.549,143.003 166.272,142.310 165.954 C 141.125 165.412,140.914 165.386,138.776 165.524 C 137.340 165.617,136.250 165.583,135.815 165.432 C 135.145 165.198,135.122 165.213,134.899 166.013 M268.225 167.279 L 268.225 168.280 267.334 168.280 L 266.444 168.280 266.444 167.279 L 266.444 166.277 267.334 166.277 L 268.225 166.277 268.225 167.279 M262.830 171.109 C 263.106 171.162,263.507 171.160,263.720 171.105 C 263.933 171.049,263.706 171.005,263.216 171.008 C 262.727 171.010,262.553 171.056,262.830 171.109 M264.608 171.109 C 264.883 171.162,265.334 171.162,265.609 171.109 C 265.885 171.056,265.659 171.012,265.109 171.012 C 264.558 171.012,264.332 171.056,264.608 171.109 M273.511 171.109 C 273.787 171.162,274.238 171.162,274.513 171.109 C 274.789 171.056,274.563 171.012,274.012 171.012 C 273.461 171.012,273.236 171.056,273.511 171.109 M277.963 171.109 C 278.239 171.162,278.689 171.162,278.965 171.109 C 279.240 171.056,279.015 171.012,278.464 171.012 C 277.913 171.012,277.688 171.056,277.963 171.109 M282.415 171.109 C 282.691 171.162,283.141 171.162,283.417 171.109 C 283.692 171.056,283.467 171.012,282.916 171.012 C 282.365 171.012,282.140 171.056,282.415 171.109 M187.201 181.970 L 187.201 183.417 202.449 183.417 L 217.696 183.417 217.696 181.970 L 217.696 180.523 202.449 180.523 L 187.201 180.523 187.201 181.970 " stroke="none" fill="#f4a699" fill-rule="evenodd"></path></g></svg>